<?xml version="1.0" encoding="utf-8"?>
<!-- Generator: Adobe Illustrator 18.0.0, SVG Export Plug-In . SVG Version: 6.00 Build 0)  -->
<!DOCTYPE svg PUBLIC "-//W3C//DTD SVG 1.1//EN" "http://www.w3.org/Graphics/SVG/1.1/DTD/svg11.dtd">
<svg version="1.1" id="Слой_1" xmlns="http://www.w3.org/2000/svg" xmlns:xlink="http://www.w3.org/1999/xlink" x="0px" y="0px"
	 viewBox="0 105 768 919" enable-background="new 0 105 768 919" xml:space="preserve">
<path fill="#000000"      d="
	M265.9,902.5l-4.5-5.7l1.7-6.4v-4l3.8-4.3l3.4-2.1h3.1l1.5,10.2l-2.4,4.4v4.2v4.2l-2.5,2.6L265.9,902.5z M271.8,910.2h-3.3l-3.4,4.1
	l-3.3,1.1h-4.8v8.4v7.3c0,0,4.4,4.5,4.1,5.8c-0.4,1.3,0.1,5.2,0.1,5.2s-0.4,6.1,0.1,7c0.5,0.9,3.8,1.7,3.8,1.7l3.5-3.9l3.9-1.7
	l2.4-5.7v-7.4V927l3.1-3.1v-5.3l-2.9-4.5L271.8,910.2z M351,963.6l-2.6,2.9l-10.4,0.3l-7-0.7l-3.9-2.5h-3.3l-4-0.1l-4.4,2.6l2.2,4.4
	l4.4,2.2c0,0,3,3.1,4.4,3.5c1.3,0.4,4.8,3.5,4.8,3.5l6.1,2.9l6.1,5.1h6.7v-4.2l3.1-8.1v-4.5l3.4-5.1l-1.5-2.2H351z M179.8,934.6
	l-2.2,3l1.1,3h4.1h4.2l2-3l-5.7-5.3L179.8,934.6z M196.1,930.1l1.9,2.1h3.5v-2.1h-2.4H196.1z M502.7,958.3h-4.2v3.1h4.2V958.3z
	 M501.1,1013.2c-1.6,1.4-8.1,0.3-8.1,0.3l-7.4-1.8h-6.9h-4.2l-7.2-2.1h-6.4h-4.2l-6.3,1.1v2.6l9.4,2.6h5.2h6.3h5.2l2.5,3.1h6.9
	l7,2.4l8.1-1.9l5.4-2.3C506.5,1017.2,502.7,1011.8,501.1,1013.2z M339.5,843.3h2.1v-3.1h-2.1V843.3z M508.9,973h3.1v-4.2h-3.1V973z
	 M524.6,1001.2h5.2V996h-5.2V1001.2z M508.9,942.6h-6.3v5.2h6.3V942.6z M425.3,963.6h3.1v-3.1h-3.1V963.6z M475.5,117.7h-4.2v3.1
	h4.2V117.7z M324.9,231.7h-4.2v5.2h4.2V231.7z M415.9,149.1h-3.1v5.2h3.1V149.1z M430.5,152.2h-5.2v5.2h5.2V152.2z M498.6,117.2
	l3.5-2.5l-4.4-1.7l-4.4,1.6v4.2l3.4,0.5L498.6,117.2z M458,139.3l1.3-4.9h2.5l4.5-5.5l-4.6-1.8l-1.9,4.1h-5.2l-3.1,4.2l-3.1,3.8
	l4.8,2.2L458,139.3z M457.7,540.1l3.4-4.7l2.2-4.7h-5.6h-6.3l-4.2,4.1v5.4h3.1H457.7z M455.6,525.5l3.1-2.9v-3.3h-6.3h-6.3v3.1
	l6.3,3.1H455.6z M396,552.6v7.3l-3.1,6.2v7.4h6.3v-6.3l5.2-4.2v-7.3v-5.2l-5-0.1L396,552.6z M413.2,485.4l1.7,4.5h5.2l2.1-4.7v-3.7
	l-5.6-0.1L413.2,485.4z M209.6,457.5c1.3,3.1,6,4.4,6,4.4s-3.6,5.7-3.6,8.7c0,3.1,0,8.8,0,8.8l1.5,4.7l1.9,0.9l0.5,5.2l0.9,3.9
	l3.1,0.9l1.8-1.3l-1.7,6.1l-4.4,5.2l1.7,6.1l5.7-1.3l1.3,3.9c0,0-3.5,5.7-3.5,7.4s0.9,8.3,0.9,8.3l4.4,2.6l4.8,7l8.7,4.2l8.3-1.1h6
	l5.8-4.1l10.5-9.7l6.5-7.5l6.1-2.6l4.8-4.4l-1.7-5.2c0,0-0.9-3.5,0.4-3.9c1.3-0.4,4.3-3.1,4.3-3.1v8.2c0,0,3.8,5.3,4.2,7.1
	c0.4,1.7,4.5,6.5,4.5,6.5l1.8,10l2.2,10l3.5,4.4c0,0-0.4,5.2,0,7c0.4,1.7,3.9,11.8,3.9,11.8l3.5,5.4l5.6,7.7v3.3l-1.9,5l0.3,4.8
	l1.9,1.8l1.8,1.1l2.4,8.9c0,0-5.2,0.9-3,3.5c2.2,2.6,4.4,4.4,4.4,4.4l8.3-1.3l7.9-1.3l1.3-7.9l-0.9-6.1c3.1-2.2,10.9-13.1,10.9-13.1
	l7.9-17l10-14.8l2.6-9.2l0.4-11.8l8.7-4.8l5.1-5.7c0,0,2.3,0.4,4.5,0c2.2-0.4,6.5-7,6.5-7l-4.8-1.3l6.1-3.9l4.8-4.8l-2.6-4.4
	l1.3-8.3l-4.4-5.2l-2.2-5.3c0,0-3.5-4-4.8-4s-6.6,0-6.6,0l-4.8-5.3l-1.4-5.5V447l8.1-6.5l-2.3-4.8l0.5-9.2l-1.7-6.1
	c0,0,2.7,1.3,3.8,0s1.1-6.1,1.1-6.1s3.1-3.9,5.2-3.9s3.9-2.2,3.9-2.2l3.1-7l2.6-6.5h6.1l5.3-6.3c0,0,3.9-4.1,5.7-4.1
	c1.7,0,7.4-4.9,7.4-4.9l4.4-6.6l2.6-6.1l3.9-3.9l-0.9-3.9l-2.2-5.7v-6.6l2-6l3.6-7c0,0,2.2-4.4,4-5.7c1.7-1.3,5.7-5.2,5.7-5.2
	l4.8-6.1c0,0,3.9-0.4,5.2,0s9.2-0.2,9.2-0.2s5.7-2.9,7.9-2c2.2,0.9,2.6,0.9,5.7,3.5c3.1,2.6,8.1,10.5,8.1,10.5l-0.7,7v9.2l-4.6,2.6
	c0,0-6.8,7.4-7.7,8.7s-4.7,6.5-6.5,7.9c-1.7,1.3-13.5,15.3-13.5,15.3s-5.2,6.5-5.7,7.9c-0.4,1.3-2.6,7.9-2.6,7.9s-5.2,1.3-6.1,3.1
	c-0.9,1.7-4.4,8.7-4.4,8.7s-4.4,3.5-4.4,5.7c0,2.2-0.9,10.5-0.4,12.2c0.4,1.7,3.1,8.3,4.8,10c1.7,1.7,2.2,6.1,1.7,8.7
	c-0.4,2.6-3.1,9.6-3.1,11.3c0,1.7-0.4,6.1-0.4,8.7s1.3,11.8,1.3,11.8l4.8,5.2l3.5,2.2l-5.2,0.9c0,0-3.9,0.9-3.1,2.6s6.5,4.8,6.5,4.8
	l2.2-2.6l4.4,0.9l1.7,3.5l5.2-2.2l0.9,4.4l6.1,1.3l5.2-0.9l2.6-3.9l7.4-0.4l10.5-5.7l8.3-2.2l8.7-2.6l6.5-3.1l6.5,1.7l3.9-1.3l7-7.9
	l33.6-40.6l8.3-10.5l4.4-10.5l-3.1-8.7l-4.8-3.5l-13.1-15.3l1.7-5.7l4.4-6.1l-6.5-9.2l0.4-12.7l-4.8-0.9l-0.9-5.2l1.7-3.9l-3.9-4.8
	l2.2-10.9l4.4-3.5l1.3-6.1l-3.9-11.8l-4.4-8.7l-2.6-9.2l-3.9-5.2l1.3-3.9l3.1-4.8l3.5-7.9l6.5-12.7l-3.1-7c0,0-4.4-5.2-5.7-6.1
	s-7-2.6-7-2.6l-4.4-7l-3.9-6.1l2.6-6.1l2.2-4.8l1.3-5.2c0,0-2.2-3.9-0.9-3.9s3.1-3.1,4.4-3.1s2.2-3.1,3.1-4.8
	c0.9-1.7,0.9-6.5,3.1-6.5c2.2,0,4.4,2.6,6.5,0c2.2-2.6,4.8-7,4.8-7s-0.9-3.9,1.7-3.1s6.1,3.5,7.4,2.6s0.4-8.6,0.4-8.6l-5.7-1.6h-5.2
	h-5.2l-3.5-3.9c0,0-3.9-5.4-5.2-5.4s-4.4-3.9-4.4-3.9l10,2.7h5.2l8.8-2.7l4.4-5.2l4.4-4.4l-6.5-3.1c0,0-3.5-2.2-4.8-2.2
	s-4.1,0-4.1,0l0.6-4.2H556h-4.2l0-2.9l-2.6-3.2c0,0-3.1-4.9-4.4-4.9s-4.4-0.9-4.8,2.6c-0.4,3.5-0.4,4.8-0.4,7s-1.7,7-1.7,7l-3.6-0.9
	l0.8-3.9c0,0,1-2.8,0-2.8c-2.1,0-4.2,0.2-4.2,0.2v-2.3l2.8-4.2l1-2.7l-3-5.1c0,0-2.4-3.5-4.2-3.5c-1.7,0-5,3.1-5,3.1v2.1h-3.1v5.2
	h2.7l-0.8,1.7l-0.9,3.8c0,0-3.1,2.6-3.1,3.9s1.3,3-0.4,5.2c-1.7,2.2-3.9,3.9-3.9,3.9l-0.4-7.9c0,0-4.8,0.4-3.9-0.9
	c0.9-1.3,2.2-5.2,2.2-5.2l1.3-3.5l-4.4-3.5l-2.2,3.9l-1.3,5.7l-3.5,4.8l-1.7,4.4c0,0-2.6,3.1-3.1,4.8c-0.4,1.7-1.7,4.4-1.7,4.4
	l-3.9,5.7l-2.6-0.9l2.2-7.9l1.3-4.8l2.6-5.2l1.7-7l2.2-5.7l-2.6-2.2l-3.1-1.3l-1.3,4.4l-4.4-4.4l-3.1,4.4c0,0-4.4-3.1-2.6-0.4
	c1.7,2.6,3.1,6.1,3.1,6.1l-3.5,0.9l-1.7,2.2l-0.9,2.6L475,133l-4.8-1.3l-0.6,2.6l-5.1,2.8c0,0,1.3,3.4,0,4.3
	c-1.3,0.9-2.6,4.8-2.6,4.8l3.9,2.4l2.5-1.4c0.4,0.9,0.5,1.9,0.5,2.4c0,1.3-2.8,2.6-2.8,4.4c0,1.7,0,7.7,0,7.7l-5.3-3.3l-2-3.1v-6.2
	l-4.5,0.5l-0.7-3.5l-5.6,4.4l-5-0.4l-1,0.2v-1.2h-6.3v6.3h3.1v1l6.7,1.9l-0.7,4.4l-5.6-0.9l-2.1,2.6l-3-0.9c0,0-0.9-4.4-2.7-3.1
	c-1.7,1.3-4,3.1-4,4.8s0,5.7,0,5.7s-2.3,3.4-2.3,4.7c0,1.3-2.5-2.6-2.5-2.6l2.7-7l-2.6-3.5c0,0-3.9,2.6-4.3,3.9
	c-0.4,1.3-1.3,8.3-1.3,8.3l-1.7-5.2l-3.9-1.7l3.1-6.1c0,0-1.7-3.9-3.1-3.9c-1.3,0-4.5-2.6-6.2-0.9c-1.7,1.7-4.9,6.1-4.9,6.1v1.6
	l-2.2,3.2c0,0-2.9,2.2-2.9,3.9s0.5,6.5,0.5,6.5l4.8,0.4l1.3-2.6l4.4,1.7l-3.9,3.5l-1.7,4.8l-3.1-1.3c0,0-2.6-1.7-3.9-1.3
	c-1.3,0.4-5.8-3.5-5.8-3.5s-2.4-2.2-3.8-1.3s-2.6,4.4-2.6,4.4l-3.9,3.1c0,0-0.4,5.2-0.4,7s-0.4,5.2,1.7,5.7c2.2,0.4,4.8-2.6,4.8-2.6
	l4.2-3.5l4.1-1.3l0.9,3.5l-5,0.9l-2,7.9c0,0-2.2-1.3-3.5,0c-1.3,1.3-4.8,6.5-4.8,6.5l-3.9-0.4l-2.4-4.4l-3.3-3.5v4.6l-2.9-0.7
	l-3.8-4.8l0.9-5.2l0.9-1.5l-5.2,2.8l0.4,6.5l-2.6,1.7l-1.9-4.4l-3.6,1.3v4.2l-1.8,4.5l-2.2,3.9h6.2l3.9,0.3l-3.9,2.9l-6.5,0.4
	c0,0-1.7,3.9-1.7,5.6c0,1.7-4.8,1.7-4.8,1.7l-6.5,3.1l-2.2,5.7h5.1l1.8-3.1h4.4h3.1l3.7-4.6l2.7-2.3l4.8,0.8l4.8-1.8l4.4-3.5
	l3.5,2.2l5.2-2.6l4.4,0.9l0.9,2.6l-5.7,0.9l-4.8,0.9l-1.3,6.1l0.4,5.2l-4.4-2.6l-5.7-2.4l-2.2,5.5h2.8l-2.8,3.2l-4.8,2.1l-2.3,5.6
	l3.6,1.7l3.9-1.3l-5.6,5.7l-5.6,2.2v6l7,0.6l1,2.2l-4.4,1.3l-6-0.4l-3.5,4.8l-4.4,4.4l-1.3,6.1l-4.2,0l-4.2,4.8v3.5l-1.8,2.2
	l-2.2,4.8l4.1,3.1v4.6L321,304l-3.1,4.8l-1.7,5.7c0,0-3,3.1-3,4.8c0,1.7,1.3,6.5,1.3,6.5l-1.7,3.9c0,0-3.9,0.9-3.9,2.2
	c0,1.3-0.4,4.8-0.4,4.8s-3.9,3.5-4.4,4.8c-0.4,1.3-4.8,3.1-4.8,3.1l-4.4,0.9l1.7,3.1l3.1,0.4l-0.9,3.5l-6.1,2.2c0,0-4.4,3.5-4.4,5.2
	c0,1.7-2.2,9.2-2.2,9.2l-4.8,7l-4.4,3.5l3.9,4.5l2.2,1.4h4.2l3.7-3.5l3.1-3.2l3.5-3.6l1.7,4.8l-3.9,2.2c0,0-5.2,2.2-4.8,3.9
	c0.4,1.7,1.3,3.9,1.3,3.9l-3.9,0.4l-5.2,0.9l-2.6-2.2l-1.7-2.6h-4.6l-1,3.3l-2.6,2.9c0,0-6.1-2.2-7.4-1.4s-3.5,0.8-3.5,3.9
	s0.4,5.7-0.4,7c-0.9,1.3-5.2,0.4-5.2,0.4l-0.9,4.4l-2.6,3.5l-2.6,1.3c0,0,0.4,2.6-0.4,3.9c-0.9,1.3-5.7,1.7-5.7,1.7
	s-3.5-2.2-4.8-0.9c-1.3,1.3-2.2,2.2-3.1,3.9s-2.2,5.2-2.2,5.2s-3.5-0.9-4.8,0c-1.3,0.9-3.1-1.7-4.8,1.3c-1.7,3.1-4.8,6.5-4.8,6.5
	s-4,0.9-4.9,3.9c-0.9,3.1-1,3.5-1,6.5c0,3.1,0,6.2,0,6.2S208.3,454.5,209.6,457.5z M763,977.2v4.7l-5.3,2.6l-3.1-1.1v-2.9l-14.6,0.8
	v-3l-4.9-0.9l-2.4,1.7l-4.3,2.2l-4.8-1.7l-6.5,1.7l-6.5,0.7l-2,5.5h-7.3h-5.1l-5.2,1.9l-4.8,1l-2.6-2.9H677l-6-3.1v2.6l-6.3,0.5v2.5
	l-10.5,0.6v-3.7l-5.2,0.5v10l-5.2,0.5v7.3h-4.2v-5.1l-1.9-4.9l1.9-5.7v-2.6l-6.4,3.9l-5.6-0.9l-4.3-3.1l-6.5,3.5l-7,5.2l-7.8,4.4
	c0,0-10-0.9-11.3-0.1c-1.3,0.9-3.9-7.4-5.2-8.7s-6.1-2.4-6.1-2.4l-6.6-1.5h-6.5l-2.6,6.1L557,996h-3l-9.5-2.1v-4.2l-4.4,0.9
	c0,0-5.8-2.2-7.6-3.5c-1.7-1.3-4.7-2.6-4.7-2.6l-4.3-2.6l-4.8-4.8l-1.7-4.8l1.7-3.9l-5-2.2l-2.4-2.9l-4.8-2.4l2.8-3.1l3.9,0.5v-5.2
	v-4.2V943l-3.1-2.5h-3.5l-3.3-4.2l3-4.1l-0.4-4.3v-3.3l4.2-3v-3.1h-4.2h-4.2l-4.3-3.1h-6.1c0,0-1.7-4-3-3.6
	c-1.3,0.4-5.7,3.1-5.7,3.1s-3.5,3.5-4.8,3.2c-1.3-0.3-4.4,2.6-4.4,2.6l-3.5,5.1H465l-4.4-2.7l-2.6-2.3l-3.9,4.5l2.6,4.1l5.2,2.5
	l0.9,3.9c0,0,3.5,2.2,3.5,3.9c0,1.7-1.7,3.4-1.7,4.8s3.5,6.1,3.5,6.1l5.7,2.6c0,0,2.6,2.2,3.5,3.5c0.9,1.3,3.5,6,3.5,6
	s0,0.5-0.4,1.8c-0.4,1.3-4.8,3.9-4.8,3.9h-5.2l-4.8-3.2l-3.1,1l-4.8-3h-3.9h-4.3v1l7.2,3.7l6.4,1.8v5l-0.8,3.3l-0.2,8.7v4.7h-4.2
	c0,0-2.7-5.5-2.7-4.2c0,1.3-0.9,4.2-0.9,4.2h-5.8v-4.2h-2.9h-2.3v-7.3l-3.5-5.2l-1.8-4.1v-5.3l4.9-2.1h3.4l-3.4-3.7l-4.4,0.7l-5.2-4
	l-4.7-5.2l-4.3-4.1v-11l-3.4-4.2l-7.1-2v-3.6c0,0-3.4-7-3.2-8.3c0.2-1.3,0.1-15.3,0.1-15.3v-7c0,0-4.7-4.4-5.5-5.7
	c-0.9-1.3-6.5-5.7-6.5-5.7s-7.3-4.4-10-4.4c-2.6,0-5.6-4.4-5.6-4.4l-4.8-4.4l-5.7-4.4l-5.2-1.3l-6.1-2.2l-7.9-8.3l-2.9-4.4l-2.6-5.6
	v-5.7l-4.4-4.2l-2.9-3.2l-0.8,3.2l-1.7,2l-3.5-2c0,0-2.2-3.7-3-5s2.2-3.1,2.2-3.1l1.3-4.8l-4.8-1.3l-7.4,1.7l-5.2,2.2l-3.9,3.1
	l0.4,7.2l0.4,2.9l-1.7,2.6l-1.3,1.7l0.9,4.4l2.2,3.5l0.4,2.6l4.4,3.9c0,0,2.6,1.7,3.9,1.7s5.7,4.4,5.7,4.4l5.7,9.2l2.6,4.8l2.6,6.1
	l8.6,8.1l4.7,5.2h5l5.2-1.9l3.9,5.2l-3.1,3.9l3.5,2.6l5.2,3l6.1,2.6l4.8,1.3l4.5,7.4l7.6,4.1v3.1v3.7l-5.2-1.7l-2.3-3.5l-5.6-1.3
	l-3.2-1.7l-3.8,2.2l-0.9,6.1l-2.6,3.1l2.8,3.1l3.9,2.7v5.1l-1.8,5.2l-3.7,6.1l-6,6.5l-3.6,4.4l-3.8-0.9l-0.7-3.9l4-5.8V950v-5.6
	l-4.2-6.9v-5.3l-5.2-0.9l-3.2-4.4l-2.7-5.7c0,0-6-2.2-7.7-3.5c-1.7-1.3-4.3-3.7-4.8-5c-0.4-1.3-2.6-4.6-2.6-4.6h-5.7l-6.1-3.7
	c0,0-11.8-7.9-12.7-9.2c-0.9-1.3-6.5-7-7.9-8.4s-4.8-3.1-7-4.4c-2.2-1.3-3.5-3.5-3.5-3.5s1.7-3.9,0-6.1c-1.7-2.2-3.9-6.1-3.9-6.1
	l-3.5-5.7c0,0-2.6-3.5-4.4-4.8c-1.7-1.3-4.4-2.6-6.1-3.5c-1.7-0.9-4.4-2.6-4.4-2.6l-6.1-0.4l-5.7,5.7l-3.1,3.9c0,0-3.9,1.7-5.2,1.3
	c-1.3-0.4-4.4,4.8-4.4,4.8l-3.9,3.5l-7.4,3.1l-8.3,1.3l-7.4-2.6l-6.5-0.9l-3-2.6l-5.3-2.6l-4.8,0.4l-7.4,4.8l-4.4,5.7l0.4,7l2.6,6.1
	l-2.2,5.2c0,0-5.7,6.5-7,6.5c-1.3,0-7.4,5.2-7.4,5.2L164,909l-3.9-1.3l-4.4,5.7l-1.3,4.8l-3.9,6.1l-5.2,5.2l-5.7,10l-0.4,5.7
	l2.2,3.9l3.1,4.8l-3.1,5.7l-4.8,5.2l-3.5,4.8l-2.6,3.5l-6.5,0.4l-3.9,5.7l-3.5,5.7l-3.5,2.6l-3.5-0.4l-4.4,1.7l-3.9,0.9l-8.7-1.7
	l-6.5,1.3l-4.4,0.9l-2.6,2.2l-5.7,2.2l-3.1,3.5l-3.5,2.2l-5.7-2.6l-3.5-3.1l-2.2-5.7l-4.8-3.1l-5.2-4.8l-4.4-0.2l-2.6,2.6h-8.4h-4.7
	l-5.7-3.1h-5.2l-2.6-2.7l4.1-4.3l-0.5-9.7v-7l-4.2-6.6v-7.4l7-8.7l2.1-11.3l1.1-11.8l-0.9-11v-5.2l-2.7-4.8l1.5-4.8l-1.1-3.5
	l-4.1-2.7v-6.1l7.2-3.1l6.2-1.7l3.1-4.4l3.5-1.7l5.3,2l8.1,0.3h7.6l3.1-1.6l5.2,2l5.7,1.7l8.3,0.8l6.1,2.9l4.8-1.6h6.3H98h3.1h6.3
	h9.5l3.5-2.4l2.6-9.7l1.7-7l2.2-2.6l-0.9-13.1l1.3-4.4l2.6-2.2l-2.6-2.6l0.9-4.5l-2-6.9h-4.5l-3.9-5.4l-3.1-7l-2.2-7.9l-2.6-2.6
	l-5.2-4.1l-5.6-2.1h-4.4l-4-3.1h-4.8l-4.8-3l0.9-5.2l0.3-3.4h-5.2v-5.2h4l8.7-1.8l4-1.4h7.4l2,3.1h2.1h5.2h3.1h5.8l0.4-3.1l0.4-4.9
	l-0.4-5.6h-3.1v-5.7l2.2-2.2l4.7,0.4l2.7,3.8l10.3,2.6h7.3v-6.8l3.1-4.7h3.8l7-3.1l3.2-3.9l3.8-5.6v-6.8l2.2-3.2l5.2-1.5h5.3
	l4.4-5.3l7.9-3.8l5.7-4l2.2-5.3l5-7.9l4.2-6.2v-10.5l5,0l1.4,4.4l0.9,5.7l1.8-2.6l3.1-0.9l3.1-3.5l-3.5-5.2l0.4-4.8l3.9-3.5l7.9-2.6
	l6.1,0.4l3.1,0.9l3.9-3.1l3.9-5.2l4.8-0.9l3.9,2.6l4.4,0.9l1.7-5.7l3.2-3.5l-1.6-9v-5.8l-0.2-7.4l-2.9-8.7l0.9-7l-2.6-3.1l-6.5-13.1
	l3.9-3.1l1.7-3.1l6.1-0.4l-2.2-2.6l-3.9-5.7c0,0,1.3-3.9,1.3-5.2c0-1.3,4.4-1.3,4.4-1.3l7-3.1l4.4-2.6c0,0,3.5-1.7,3.5-3.3
	c0-1.6,2.2-5.8,2.2-5.8l3.2-1.7l3.7,3.6v7.3l-3.7,10.9l1.9,5.2l3.6,3.1l5.3,3.9l-1.7,4.4l9.2,2.2l6.4,0l1.8,2.9l4.1,14.5l-1.3,4.4
	l-2.2,3.5l0.4,2.6l-2.2,3.1l-2.2,5.2l-4.8,1.3l-3.9-1.3l-3.5-1.3c0,0,0.4-3.9,0.4-6.1s2.6,0.4,2.6,0.4l3.9,0.9l3.1-2.6
	c0,0,0-2.6-0.9-3.9c-0.9-1.3-3.1-1.3-3.1-1.3s-2.6-2.2-3.1-3.5c-0.4-1.3-1.3-3.9-2.2-5.2c-0.9-1.3-3.1-2.2-3.1-2.2l-4.4,0.4
	l-1.7,1.7l3.5,3.9l0.9,4.4l0.9,4.4l-3.1,3.9l-2.2-3.1l-3.9-2.2c0,0-0.9-3.1-1.7-5.2c-0.9-2.2-2.6-3.1-2.6-3.1l-3.1,3.1l-0.4,5.2
	l0.9,4.4l0.9,3.9c0,0,2.6,3.9,2.6,5.2s3.9,4.4,6.1,4.8c2.2,0.4,3.1,0.9,6.5,0.9s3.1,1.7,3.1,1.7l2.6,5.7c0,0,2.6,0.9,4.8,0.4
	c2.2-0.4,5.2-3.1,6.5-5.2c1.3-2.2,3.5-1.7,5.7-2.6c2.2-0.9,4.8-0.4,5.7-1.7s3.1-4.8,4.4-5.2s4.4,1.3,5.7,1.7c1.3,0.4,0,3.5,0,3.5
	l-2.2,3.5l3.1,2.2l3.9,4.8l2.6,3.5c0,0,4.8,0.9,5.2-0.4c0.4-1.3,3.1-4.4,3.1-4.4s7.4-2.6,9.2-3.9c1.7-1.3,8.3-3.1,8.3-3.1l8.7-4.4
	l4.4-3.9l7.4-3.2c0,0,3.9-0.9,4.4-0.9s6.1,0,6.1,0l4.8,4.1l3.5,4.2l4.8,3l7.9-2.6l4.4-4.8l-0.4-4.8l3.9-3.5l4.8,0.9
	c0,0,5.7-0.4,5.7-1.7s0.9-7,0.9-7s0-2.2-0.9-3.9c-0.9-1.7,0-6.1,0-7.9s0.9-5.2,0-7c-0.9-1.7-1.3-3.9-2.2-5.7
	c-0.9-1.7,0.9-7.9,1.3-9.6c0.4-1.7,2.6-3.1,2.6-6.4c0-3.3,2.6-5.8,2.6-5.8l2.6-5.2c0,0,6.5-4.8,7.9-6.1c1.3-1.3,4.4-2.2,4.4-2.2
	l5.7,3.9l3.9,6.5l0.9,5.1l4.4,4.4h5.6l4.8-6.1l0.9-7.1l1.7-7.5c0,0-1.3-3.1-1.7-5.7c-0.4-2.6,0.4-4.8,0.4-6.6c0-1.7,3.1-4.8,3.1-4.8
	l-1.7-2.2l-2.6,4.8l-5.7,1.7c0,0-4.4-5.7-4.4-7c0-1.3,0.9-8.3,0.9-8.3l-0.4-5.7l0.9-3.5l6.1-3.5l5.2-4.8c0,0,7.4-1.3,8.7-1.7
	s4.4-1.9,4.4-1.9l11.5,2.9c0,0,9.4,0,11.1,0c1.7,0,6.5,0.2,6.5,0.2l3.9-0.6l3.5-7l1.3,4.3c0,0-0.4,4.3-1.3,5.7
	c-0.9,1.3-1.3,5.2-2.2,6.5c-0.9,1.3-4.8,6.1-4.8,6.1l-0.9,4.8l1.5,5.7l2.2,6.8v7.2l-0.3,4.8l-1.7,5.2l1.4,5.2l1.8,5.2l0.9,3.9
	l-1.3,2.6l0.4,4.4h3.1v6l2.2,6.5l1.6,2.6l3.1,4.2l5.6,2.6h5.3l2.6,3.6l3.5-0.6l1.7-3.6l7.6,3l5.4,2.8v5.9l0.5,5.1
	c0,0,1.6,3.7,1.6,6.8c0,2.1-2.1,0-2.1,0v3.8l4.6,2.6l1.5,6.1l2.7,3.9l1.8,1.7l1.3,3.5c0,0,2.2,2.6,3.5,3.9c1.3,1.3,3.9,0,3.9,0
	l2.2,2.6l2.6,4.4l3.5,2.2l-3.5,3.9l-3.5,4.4l-3.9,1.1l-4.2-2.4h-3.7l-2.2,3.9l3.1,3.5l0.2,3.9l2.6,3.3v3.2l1,6.1l3-0.4l3.1-0.4
	l0.9-2.6l2.2-0.2l4.4,1.7h4.4l1.9-2.1h3.3l4.4,0.3l5.7,6.1l3.1,4.7l-2.6,5.2l-0.9,4.3l1.3,3.7l5.6,0.7h6.1l2.2,3.9l3.5,6.6l0.4,5.6
	l2.6,1.7l3.9-2.6l3.5,3.9l6.5,0.4c0,0,2.6-0.6,3.5-1.9s3.2-0.9,3.2-0.9h3.7l4.4,4.9l0.4,3.7l2.2,1.7l1.7-1.8l3.1-2.2l5.2,2.2
	l3.1,1.7l4.8,3.9l3.5,0.9l1.5,3.1l7.2-0.3v3.8l-1.3,4.8l-3.2,2.2l-2.1,1.7l4,2.6l-0.4,3.5l-2.2,2.6l2.6,3.1l0.6,5.2l-4.3,0.8v5.3
	l-5.6,1.3l-6.1-1.3l-4.7,2.2l-3.5,5.9l-1,8.5H667l-3.5,1.1l-8.3,4.2l-8.7,1.7l-7,2.6l-5.2,2.2l-3.1-0.9l-1.3,4.4l-6.5,3.5l-2.2,2.6
	l-3.1-2.6l-5.7-0.9l-0.9,1.7l3.1,1.7l3.9,1.3l3.5,2.6l3.9,2.6l2.2,3.5l2.2,3.8l5.1-0.6h3.2l4.4-2.2l2.6,2.3l-0.4,4.6l-1.4,3.8h-4.3
	l-2.2-2.2L633,838l-4.8,2.9l-5.3,2.5h-3.5l-1.7,3l-3.5,1.8l-3.3,2.1l-5.8-4.8v-5.8l0.8-1.8L604,834l-6.5-2.6l-3-3.9l0.9-3.1l3.1,0.7
	l4.5-3.7h4.6l-0.9-4.4l-3.5-0.3l-5.2-2.2l-6.5,1.7l-3.9-2.2l-2.2-3.1l3.5-4.8l-3.5-3.9l-0.9,1.7l-4.8,1.7l-4.8-0.9l-6.5,2.2
	l-2.6,5.2l-6.1,7l-3.5,3.1l-3.5,3.5l-1.7,3.5l1.3,8.6l-3.9,2.7l-3.5,3.1l-4.8,2.6l-1.7,7.9l0.9,10l-3.8,4.4l-5.6,1v9l-2.4,3.1
	l-2.5,3.1l2.7,5.2l4.5,5.7l-1.8,3.9l11.9,7.4l10,1.3l11.8-0.9l10.5,2.6l5.7-4.8l7.9-4.4l10.5-6.1l9.2-0.2l13.1,1.2h6.5l0.9,3l7,1.8
	l7.4,3.2l4.4,3.4h3.5l7,2.9l11.3,3.9c0,0,4.4-0.5,7.4-1.8c3.1-1.3,7-0.9,7-0.9l9.2,0.9l5.2,1.7l3.5-0.4l7.4-4.4l6.1-3.5l5.7-3.7
	l7.2,0h8l5.7,5.1l4.4,4.8l1.7,6l0.4,8.1l1.7,3.2h3.9l2.6,1.1l3.5,3.4l-1.3,5l-3.5,4.1h-3l1.3,5l1.7,6l2.2,6.3l0.9,3.1l-3.5,5.2
	l3.1,2.1l4.1,2.1L763,977.2z M551.4,916.3l-4.8-3.8c0,0-7.9-0.4-9.2,0c-1.3,0.4-9.7,0-9.7,0l-9.1,4.4l-5.1,2.9l-1.1,0.9l6,5.2h4.2
	h5.2c0,0,5.3-1,6.6-2c1.3-1,7-0.1,7-0.1h3.9l1.3-3.3L551.4,916.3z M47.8,446h-3.1v4.2h3.1V446z M101.2,516.1h-5.2v6.3h5.2V516.1z
	 M121,489.9h4.2v-12.5H121v4.2h-3.1v5.2h3.1V489.9z M42.6,434.5h5.2v-2.1H51v-7.3H39.5v7.3h3.1V434.5z M44.7,552.6h-5.2v13.6h5.2
	V552.6z M46.8,539.6v4.7l3.1,3.1h4.2v-6.3V537v-2.1l-4.9,0L46.8,539.6z M51,559.8l3.5,6l6.9,4.4v3.5l-3.2,4.8l-0.3,4.8l3.8,5.2
	l2-3.5l0.7,3.5l-3,6.5v1.6c0,0-6.5,0.1-7.1,1.9c-0.5,1.7,4.8,7.9,4.8,7.9l7.5-2.2l3.5-3.5c0,0,4.3,0,2.4,3.1c-1.9,3.1-5,5.7-5,5.7
	s0.9,5.5,1.7,6.8c0.9,1.3,6.5,7.6,6.5,7.6h7.5h6.3c0,0,4.1,0.7,4.6,2s1.4,3.8,2.2,6.8s5.2,6.9,5.2,6.9s-3,4.3-2.6,6.5s0,2.7,0,7
	c0,4.4-2.6,8.3-2.6,8.3h-4.7h-6.3h-5.2l-0.8,4.5l-0.9,5.5l5.2,3l3.1,4.6l-2.2,6.4h-6.5l-4.4,4l-0.4,3.4l3,3h3.9l4,5.2h4.4l3.9,3.1
	h3.4l5.2-4.2v6.3c0,0-6.1,2.1-7.4,2.1s-5.2,0-5.2,0l-6.2,4.6c0,0-6.6,4.7-6.1,6.4c0.5,1.7-3,6-4.8,7.8c-1.7,1.7-4.8,5.2-4.8,5.2
	l0.4,4.3h5.7l6.9-8l6.1-0.6l1.7,2.6l4.8-0.5l0.4-3.1l3.5-2.6l5.2-2.6h4.7l6.2-0.3l7-2.7l4.1,2.1l2.1-1.8l9.1-0.5l10.5-1.8l8.8-3.9
	l6.7-2.6v-2.1v-3.1l-9.2-1.7l1.4-3.9l4.9-3.5l3.2-5.2l3.9-5.2v-6.5v-6.3l-5.5-2.9l-6-2.2l-5.2,3.5l-3.9-2.2l2.6-3.9
	c0,0-0.4-3.5-0.9-4.8c-0.4-1.3-5.2-7.4-5.2-7.4l1.3-7.9c0,0-2.6-3.5-4.4-4.8s-8.7-11.3-8.7-11.3l-5.5-5.7l-2.1-10.9l-3.8-6.1
	l-5.7-6.5l-5.7-4.4l-4.8,0.4l-5.2-2.6l2.6-3.1l2.6-5.7l6.5-7.4l2.6-5.1l4.4-6.3l0.9-6.5l-2.2-6.5h-7.5h-7.3l-7.9,2.1h-2.6l-0.5-5.8
	l1.7-4.1l4.8-1.8l1.8-6.1l2.6-5.6l-2.6-3.9h-5.8l-5.6,2.7l-5.2,0.3l-7.5,0.7l-3,5.5l-2.2,4.3l2.6,6.4h-4.2l-3.1,4.7v6.8
	c0,0,1.3,0.3,0.3,2.4c-1,2.2-4.8,0-4.8,0l-3.3-2.4L51,559.8z M24,697l10-7.4l8.6-0.4l8.4-2.6l3.7-3.1l3.4-7.9l-0.2-16.1l1.5-12.2
	v-4.7l4.2-5.7v-9.9l-4.4-4.9l2.7-4.4l-3-3.1l-4.2-4.4c0,0-2.7-0.7-7.3,0s-4.6,0.7-4.6,0.7s-6.9-1.7-7.8,0.1
	c-0.9,1.7-3.5,5.7-3.5,5.7s-3.9,2.2-4.4,3.9c-0.4,1.7-1.8,7.4-1.8,7.4s-1.3,1.7,0,3.5c1.3,1.8,2.6,2.2,1.3,3.9
	c-1.3,1.7-1.3,1.7-1.3,1.7l-10,2.6l-7.4-3.1l-2.2,8.3l3.1,3.5l-3.1,1.7c0,0-0.9,3.1,0,4.4s3.5,5.7,3.5,5.7l2.6,3.1l4.8,2.2l-4.8,9.6
	l-6.5,6.5l-2.7,5.7c0,0-2.6,3.3-2.6,4.6c0,1.3,1.7,5.9,1.7,5.9h6.3l8,2.4L24,697z M357.3,613.3h-9.4v8.4h9.4V613.3z"/>
</svg>
